# xmcd
#
# Track frame offsets: 
#        183
#        14808
#        34258
#        57033
#        82020
#        98708
#        113270
#        130058
#        157845
#        176983
#        194370
#        210958
#        233308
#        250308
#
# Disc length: 3525 seconds
#
# Revision: 8
# Processed by: cddbd v1.5.2PL0 Copyright (c) Steve Scherf et al.
# Submitted via: ExactAudioCopy v0.95b4
#
DISCID=aa0dc30e
DTITLE=Various Artist - It's Bues Vol. 2
DYEAR=1991
DGENRE=Blues
TTITLE0=Jeff Healey - Confidence Man
TTITLE1=John Mayall and The Bluesbrakers - I Can't Complain
TTITLE2=Albert Collins - Iceman
TTITLE3=Phil Carmen - Blues In The Night
TTITLE4=Etta James - The Blues Don't Care
TTITLE5=Paul Rodgers - Boogie Mamma
TTITLE6=Alexis Korner - King B. B.
TTITLE7=Gary Moore - Still Got The Blues (For You)
TTITLE8=Jack Bruce - Willpower
TTITLE9=The Notting Hillbillies - Blues Stay Away From Me
TTITLE10=Rocky Hill - Walked From Dallas
TTITLE11=The Vaughan Brothers - Tick Tock
TTITLE12=Robert Cray Band - Don't Be Afraid Of The Dark
TTITLE13=Scott Walker - Blanket Roll Blues
EXTD=
EXTT0=
EXTT1=
EXTT2=
EXTT3=
EXTT4=
EXTT5=
EXTT6=
EXTT7=
EXTT8=
EXTT9=
EXTT10=
EXTT11=
EXTT12=
EXTT13=
PLAYORDER=
